<svg xmlns="http://www.w3.org/2000/svg" width="536" height="593" viewBox="0 0 536 593" fill="none">
<path d="M197.314 497.5C393.314 394.7 340.648 267.334 289.814 216.5C313.314 221.5 317.814 216.5 350.814 202C378.701 189.747 395.498 205.619 402.722 219.209C405.181 223.834 405.163 229.371 406.996 234.278C412.41 248.769 434.319 262.942 448.314 271C447.481 271.834 439.514 271.1 414.314 261.5C389.114 251.9 381.314 280 378.814 295.5C356.718 432.5 247.814 485.834 197.314 497.5Z" fill="#F9FAFB"/>
<path d="M173.814 451.5C132.214 476.7 116.314 511.167 113.314 525.5C117.814 529.5 125.481 534.167 131.814 537.5C165.314 491.5 190.314 484 240.814 451.5C290.314 412 349.314 352.5 291.814 244.5C243.414 178.1 217.314 85.1667 210.314 47C203.514 48.2 193.814 51.5 189.814 53C177.414 119.8 218.648 204.167 240.814 238C172.587 173.757 166.363 102.9 162.856 62.9776L162.814 62.5C153.214 66.5 141.481 73.1667 136.814 76C123.814 207.5 242.314 308 255.314 350.5C268.314 393 225.814 420 173.814 451.5Z" fill="#F9FAFB"/>
</svg>